<?xml version="1.0" encoding="utf-8"?>
<!-- Generator: Adobe Illustrator 15.0.0, SVG Export Plug-In . SVG Version: 6.00 Build 0)  -->
<!DOCTYPE svg PUBLIC "-//W3C//DTD SVG 1.1//EN" "http://www.w3.org/Graphics/SVG/1.1/DTD/svg11.dtd">
<svg version="1.1" xmlns="http://www.w3.org/2000/svg" xmlns:xlink="http://www.w3.org/1999/xlink" x="0px" y="0px"
	 width="290.667px" height="399.334px" viewBox="0 0 290.667 399.334" enable-background="new 0 0 290.667 399.334"
	 xml:space="preserve">
<g id="Layer_3">
	<g>
		<circle fill="#0000FF" cx="67.92" cy="214.831" r="3.39"/>
		<circle fill="#FF0000" cx="64.92" cy="209.831" r="3.39"/>
		<circle fill="#00FF00" cx="61.92" cy="214.83" r="3.39"/>
	</g>
	<g>
		<path fill="#0000FF" d="M144.283,328.37c0,17.839-14.457,32.297-32.301,32.297c-17.835,0-32.292-14.458-32.292-32.297
			s14.457-32.297,32.292-32.297C129.826,296.073,144.283,310.531,144.283,328.37z"/>
		<path fill="#FF0000" d="M115.703,280.737c0,17.839-14.457,32.296-32.301,32.296c-17.834,0-32.292-14.457-32.292-32.296
			c0-17.84,14.458-32.297,32.292-32.297C101.246,248.44,115.703,262.897,115.703,280.737z"/>
		<path fill="#00FF00" d="M87.124,328.365c0,17.844-14.458,32.302-32.302,32.302c-17.834,0-32.292-14.458-32.292-32.302
			c0-17.834,14.458-32.292,32.292-32.292C72.666,296.073,87.124,310.531,87.124,328.365z"/>
	</g>
</g>
<g id="Layer_1">
	<text transform="matrix(1 0 0 1 49.1572 55.0508)" font-family="'Miso'" font-size="72">evident</text>
	<text transform="matrix(1 0 0 1 30.5137 147.4238)" font-family="'Miso'" font-size="72">E vident</text>
	<text transform="matrix(1 0 0 1 56.7847 127.1689)" font-family="'Miso'" font-size="72">.</text>
	<text transform="matrix(1 0 0 1 30.5137 234.8301)" font-family="'Miso'" font-size="72">E vident</text>
	<text transform="matrix(1 0 0 1 70.3105 329.3701)" fill="#FFFFFF" font-family="'Miso'" font-size="72">E</text>
</g>
<g id="Layer_4">
</g>
<g id="Layer_2">
</g>
</svg>
